<?xml version="1.0" encoding="UTF-8" standalone="no"?>
<!-- Created with Inkscape (http://www.inkscape.org/) -->
<svg
   xmlns:dc="http://purl.org/dc/elements/1.1/"
   xmlns:cc="http://creativecommons.org/ns#"
   xmlns:rdf="http://www.w3.org/1999/02/22-rdf-syntax-ns#"
   xmlns:svg="http://www.w3.org/2000/svg"
   xmlns="http://www.w3.org/2000/svg"
   xmlns:sodipodi="http://sodipodi.sourceforge.net/DTD/sodipodi-0.dtd"
   xmlns:inkscape="http://www.inkscape.org/namespaces/inkscape"
   id="svg2443"
   sodipodi:version="0.32"
   inkscape:version="0.46"
   width="312.5"
   height="312.5"
   xml:space="preserve"
   sodipodi:docname="affinitic.svg"
   inkscape:output_extension="org.inkscape.output.svg.inkscape"><metadata
     id="metadata2448"><rdf:RDF><cc:Work
         rdf:about=""><dc:format>image/svg+xml</dc:format><dc:type
           rdf:resource="http://purl.org/dc/dcmitype/StillImage" /></cc:Work></rdf:RDF></metadata><defs
     id="defs2446"><inkscape:perspective
       sodipodi:type="inkscape:persp3d"
       inkscape:vp_x="0 : 526.18109 : 1"
       inkscape:vp_y="0 : 1000 : 0"
       inkscape:vp_z="744.09448 : 526.18109 : 1"
       inkscape:persp3d-origin="372.04724 : 350.78739 : 1"
       id="perspective2450" /><clipPath
       clipPathUnits="userSpaceOnUse"
       id="clipPath2458"><path
         d="M 0,250 L 250,250 L 250,0 L 0,0 L 0,250 z"
         id="path2460" /></clipPath><linearGradient
       x1="0"
       y1="0"
       x2="1"
       y2="0"
       gradientUnits="userSpaceOnUse"
       gradientTransform="matrix(0,39.124344,39.124344,0,123.52588,99.201172)"
       spreadMethod="pad"
       id="linearGradient2502"><stop
         style="stop-opacity:1;stop-color:#ffffff"
         offset="0"
         id="stop2504" /><stop
         style="stop-opacity:1;stop-color:#040201"
         offset="1"
         id="stop2506" /></linearGradient><clipPath
       clipPathUnits="userSpaceOnUse"
       id="clipPath2514"><path
         d="M 115.374,106.59 L 131.697,106.59 L 131.697,98.1055 L 115.374,98.1055 L 115.374,106.59 z"
         id="path2516" /></clipPath><linearGradient
       x1="0"
       y1="0"
       x2="1"
       y2="0"
       gradientUnits="userSpaceOnUse"
       gradientTransform="matrix(-2.1855621,11.185059,11.185059,2.1855621,124.02637,99.836914)"
       spreadMethod="pad"
       id="linearGradient2522"><stop
         style="stop-opacity:1;stop-color:#ffffff"
         offset="0"
         id="stop2524" /><stop
         style="stop-opacity:1;stop-color:#828080"
         offset="1"
         id="stop2526" /></linearGradient><clipPath
       clipPathUnits="userSpaceOnUse"
       id="clipPath2546"><path
         d="M 116.276,123.084 L 130.797,123.084 L 130.797,116.658 L 116.276,116.658 L 116.276,123.084 z"
         id="path2548" /></clipPath><linearGradient
       x1="0"
       y1="0"
       x2="1"
       y2="0"
       gradientUnits="userSpaceOnUse"
       gradientTransform="matrix(-0.1632538,-7.4442291,-7.4442291,0.1632538,123.60352,122.91406)"
       spreadMethod="pad"
       id="linearGradient2554"><stop
         style="stop-opacity:1;stop-color:#ffffff"
         offset="0"
         id="stop2556" /><stop
         style="stop-opacity:1;stop-color:#231f20"
         offset="1"
         id="stop2558" /></linearGradient><linearGradient
       x1="0"
       y1="0"
       x2="1"
       y2="0"
       gradientUnits="userSpaceOnUse"
       gradientTransform="matrix(0,22.202209,22.202209,0,148.41992,123.03711)"
       spreadMethod="pad"
       id="linearGradient2592"><stop
         style="stop-opacity:1;stop-color:#ffffff"
         offset="0"
         id="stop2594" /><stop
         style="stop-opacity:1;stop-color:#040201"
         offset="1"
         id="stop2596" /></linearGradient><linearGradient
       x1="0"
       y1="0"
       x2="1"
       y2="0"
       gradientUnits="userSpaceOnUse"
       gradientTransform="matrix(0,12.120514,12.120514,0,168.88281,117.3623)"
       spreadMethod="pad"
       id="linearGradient2612"><stop
         style="stop-opacity:1;stop-color:#ffffff"
         offset="0"
         id="stop2614" /><stop
         style="stop-opacity:1;stop-color:#040201"
         offset="1"
         id="stop2616" /></linearGradient><clipPath
       clipPathUnits="userSpaceOnUse"
       id="clipPath2624"><path
         d="M 0,250 L 250,250 L 250,0 L 0,0 L 0,250 z"
         id="path2626" /></clipPath><clipPath
       clipPathUnits="userSpaceOnUse"
       id="clipPath2634"><path
         d="M 0,250 L 250,250 L 250,0 L 0,0 L 0,250 z"
         id="path2636" /></clipPath></defs><sodipodi:namedview
     inkscape:window-height="742"
     inkscape:window-width="699"
     inkscape:pageshadow="2"
     inkscape:pageopacity="0.0"
     guidetolerance="10.0"
     gridtolerance="10.0"
     objecttolerance="10.0"
     borderopacity="1.0"
     bordercolor="#666666"
     pagecolor="#ffffff"
     id="base"
     showgrid="false"
     inkscape:zoom="1.6832"
     inkscape:cx="156.25"
     inkscape:cy="156.25"
     inkscape:window-x="366"
     inkscape:window-y="53"
     inkscape:current-layer="g2452" /><g
     id="g2452"
     inkscape:groupmode="layer"
     inkscape:label="affinitic"
     transform="matrix(1.25,0,0,-1.25,0,312.5)"><g
       id="g2454"><g
         id="g2456"
         clip-path="url(#clipPath2458)"><path
           d="M 224.047,39.574 C 224.047,32.311 218.152,26.416 210.885,26.416 L 39.843,26.416 C 32.578,26.416 26.686,32.311 26.686,39.574 L 26.686,210.614 C 26.686,217.887 32.578,223.776 39.843,223.776 L 210.885,223.776 C 218.152,223.776 224.047,217.887 224.047,210.614 L 224.047,39.574 z"
           style="fill:#ffffff;fill-opacity:1;fill-rule:evenodd;stroke:none"
           id="path2462" /><path
           d="M 224.047,39.574 C 224.047,32.311 218.152,26.416 210.885,26.416 L 39.843,26.416 C 32.578,26.416 26.686,32.311 26.686,39.574 L 26.686,210.614 C 26.686,217.887 32.578,223.776 39.843,223.776 L 210.885,223.776 C 218.152,223.776 224.047,217.887 224.047,210.614 L 224.047,39.574 z"
           style="fill:none;stroke:#8193bf;stroke-opacity:1;stroke-width:2;stroke-linecap:butt;stroke-linejoin:miter;stroke-miterlimit:4;stroke-dasharray:none"
           id="path2464" /><text
           transform="matrix(1,0,0,-1,119.5498,33.6504)"
           id="text2466"><tspan
             style="fill:#8193bf;fill-opacity:1;fill-rule:nonzero;stroke:none;font-family:Arial;font-variant:normal;font-weight:normal;font-stretch:normal;font-size:19.5641;writing-mode:lr;-inkscape-font-specification:ArialMT"
             x="0 13.0492547 25.0029198 36.9565849 42.3954047 56.5206849 61.9595047 73.9131698 79.3519896"
             y="0"
             sodipodi:role="line"
             id="tspan2468">AFFINITIC</tspan></text>
<path
           d="M 121.487,33.65 L 123.011,37.885 L 128.895,37.885 L 130.519,33.65 L 132.629,33.65 L 126.908,47.65 L 124.889,47.65 L 119.52,33.65 L 121.487,33.65 z M 125.086,43.513 C 125.415,44.396 125.672,45.291 125.854,46.197 C 126.072,45.431 126.406,44.459 126.854,43.281 L 128.314,39.4 L 123.555,39.4 L 125.086,43.513 z"
           style="fill:none;stroke:#5f92a0;stroke-opacity:1;stroke-width:0.25;stroke-linecap:butt;stroke-linejoin:miter;stroke-miterlimit:4;stroke-dasharray:none"
           id="path2470" /><path
           d="M 136.067,33.65 L 136.067,40.01 L 142.646,40.01 L 142.646,41.666 L 136.067,41.666 L 136.067,45.994 L 143.661,45.994 L 143.661,47.65 L 134.208,47.65 L 134.208,33.65 L 136.067,33.65 z"
           style="fill:none;stroke:#5f92a0;stroke-opacity:1;stroke-width:0.25;stroke-linecap:butt;stroke-linejoin:miter;stroke-miterlimit:4;stroke-dasharray:none"
           id="path2472" /><path
           d="M 148.018,33.65 L 148.018,40.01 L 154.596,40.01 L 154.596,41.666 L 148.018,41.666 L 148.018,45.994 L 155.611,45.994 L 155.611,47.65 L 146.158,47.65 L 146.158,33.65 L 148.018,33.65 z"
           style="fill:none;stroke:#5f92a0;stroke-opacity:1;stroke-width:0.25;stroke-linecap:butt;stroke-linejoin:miter;stroke-miterlimit:4;stroke-dasharray:none"
           id="path2474" /><path
           d="M 160.187,33.65 L 160.187,47.65 L 158.327,47.65 L 158.327,33.65 L 160.187,33.65 z"
           style="fill:none;stroke:#5f92a0;stroke-opacity:1;stroke-width:0.25;stroke-linecap:butt;stroke-linejoin:miter;stroke-miterlimit:4;stroke-dasharray:none"
           id="path2476" /><path
           d="M 165.2,33.65 L 165.2,44.639 L 172.545,33.65 L 174.45,33.65 L 174.45,47.65 L 172.669,47.65 L 172.669,36.662 L 165.324,47.65 L 163.419,47.65 L 163.419,33.65 L 165.2,33.65 z"
           style="fill:none;stroke:#5f92a0;stroke-opacity:1;stroke-width:0.25;stroke-linecap:butt;stroke-linejoin:miter;stroke-miterlimit:4;stroke-dasharray:none"
           id="path2478" /><path
           d="M 179.751,33.65 L 179.751,47.65 L 177.892,47.65 L 177.892,33.65 L 179.751,33.65 z"
           style="fill:none;stroke:#5f92a0;stroke-opacity:1;stroke-width:0.25;stroke-linecap:butt;stroke-linejoin:miter;stroke-miterlimit:4;stroke-dasharray:none"
           id="path2480" /><path
           d="M 188.437,33.65 L 188.437,45.994 L 193.046,45.994 L 193.046,47.65 L 181.968,47.65 L 181.968,45.994 L 186.577,45.994 L 186.577,33.65 L 188.437,33.65 z"
           style="fill:none;stroke:#5f92a0;stroke-opacity:1;stroke-width:0.25;stroke-linecap:butt;stroke-linejoin:miter;stroke-miterlimit:4;stroke-dasharray:none"
           id="path2482" /><path
           d="M 197.137,33.65 L 197.137,47.65 L 195.277,47.65 L 195.277,33.65 L 197.137,33.65 z"
           style="fill:none;stroke:#5f92a0;stroke-opacity:1;stroke-width:0.25;stroke-linecap:butt;stroke-linejoin:miter;stroke-miterlimit:4;stroke-dasharray:none"
           id="path2484" /><path
           d="M 208.908,35.894 C 208.189,35.294 207.312,34.994 206.274,34.994 C 205.422,34.994 204.629,35.214 203.897,35.654 C 203.166,36.094 202.627,36.76 202.279,37.649 C 201.934,38.539 201.76,39.58 201.76,40.773 C 201.76,41.697 201.906,42.596 202.199,43.467 C 202.492,44.337 203,45.03 203.723,45.547 C 204.445,46.063 205.346,46.322 206.422,46.322 C 207.357,46.322 208.135,46.09 208.752,45.624 C 209.37,45.158 209.842,44.415 210.166,43.395 L 211.994,43.825 C 211.618,45.117 210.953,46.119 209.998,46.832 C 209.043,47.544 207.864,47.9 206.464,47.9 C 205.229,47.9 204.096,47.618 203.067,47.055 C 202.039,46.491 201.246,45.666 200.689,44.58 C 200.132,43.494 199.854,42.222 199.854,40.764 C 199.854,39.426 200.1,38.174 200.594,37.008 C 201.087,35.843 201.807,34.953 202.752,34.338 C 203.697,33.723 204.924,33.416 206.433,33.416 C 207.891,33.416 209.123,33.815 210.133,34.614 C 211.142,35.413 211.84,36.572 212.229,38.094 L 210.369,38.563 C 210.114,37.383 209.628,36.493 208.908,35.894 z"
           style="fill:none;stroke:#5f92a0;stroke-opacity:1;stroke-width:0.25;stroke-linecap:butt;stroke-linejoin:miter;stroke-miterlimit:4;stroke-dasharray:none"
           id="path2486" /><path
           d="M 90.855,104.195 C 67.967,104.195 49.414,122.748 49.414,145.635 C 49.414,168.521 67.967,187.075 90.855,187.075 C 113.739,187.075 132.298,168.521 132.298,145.635 C 132.298,122.748 113.739,104.195 90.855,104.195 M 103.133,200.63 C 70.921,200.63 44.811,174.522 44.811,142.309 C 44.811,110.098 70.921,83.988 103.133,83.988 C 135.347,83.988 161.457,110.098 161.457,142.309 C 161.457,174.522 135.347,200.63 103.133,200.63"
           style="fill:#8193bf;fill-opacity:1;fill-rule:evenodd;stroke:none"
           id="path2488" /><g
           id="g2490"><g
             id="g2492"><g
               id="g2498"><g
                 id="g2500"><path
                   d="M 136.057,110.607 C 136.057,103.521 130.443,97.773 123.527,97.773 C 116.604,97.773 110.994,103.521 110.994,110.607 C 110.994,117.701 116.604,123.447 123.527,123.447 C 130.443,123.447 136.057,117.701 136.057,110.607"
                   style="fill:url(#linearGradient2502);fill-rule:evenodd;stroke:none"
                   id="path2508" /></g></g></g></g><g
           id="g2510"><g
             id="g2512" /><g
             id="g2528"><g
               clip-path="url(#clipPath2514)"
               opacity="0.5"
               id="g2530"><g
                 id="g2532"><g
                   id="g2534"><g
                     id="g2536"><g
                       id="g2538"><path
                         d="M 131.697,102.346 C 131.697,100.002 128.041,98.105 123.537,98.105 C 119.028,98.105 115.374,100.002 115.374,102.346 C 115.374,104.693 119.028,106.59 123.537,106.59 C 128.041,106.59 131.697,104.693 131.697,102.346"
                         style="fill:url(#linearGradient2522);fill-rule:evenodd;stroke:none"
                         id="path2540" /></g></g></g></g></g></g></g><g
           id="g2542"><g
             id="g2544" /><g
             id="g2560"><g
               clip-path="url(#clipPath2546)"
               opacity="0.539993"
               id="g2562"><g
                 id="g2564"><g
                   id="g2566"><g
                     id="g2568"><g
                       id="g2570"><path
                         d="M 130.797,119.873 C 130.797,118.098 127.548,116.658 123.537,116.658 C 119.525,116.658 116.276,118.098 116.276,119.873 C 116.276,121.646 119.525,123.084 123.537,123.084 C 127.548,123.084 130.797,121.646 130.797,119.873"
                         style="fill:url(#linearGradient2554);fill-rule:evenodd;stroke:none"
                         id="path2572" /></g></g></g></g></g></g></g><path
           d="M 116.958,198.625 C 129.475,178.753 123.063,153.317 103.188,140.803 C 83.308,128.291 58.873,134.124 46.359,154"
           style="fill:none;stroke:#c3cccd;stroke-opacity:1;stroke-width:1;stroke-linecap:butt;stroke-linejoin:miter;stroke-miterlimit:4;stroke-dasharray:none"
           id="path2574" /><path
           d="M 157.667,121.219 C 147.145,137.934 126.257,143.011 109.538,132.485 C 92.817,121.961 87.438,100.82 97.961,84.098"
           style="fill:none;stroke:#c3cccd;stroke-opacity:1;stroke-width:1;stroke-linecap:butt;stroke-linejoin:miter;stroke-miterlimit:4;stroke-dasharray:none"
           id="path2576" /><path
           d="M 97.961,84.098 C 108.485,67.379 129.26,62.32 145.979,72.848 C 162.7,83.371 168.193,104.498 157.667,121.219"
           style="fill:none;stroke:#c3cccd;stroke-opacity:1;stroke-width:1;stroke-linecap:butt;stroke-linejoin:miter;stroke-miterlimit:4;stroke-dasharray:none"
           id="path2578" /><g
           id="g2580"><g
             id="g2582"><g
               id="g2588"><g
                 id="g2590"><path
                   d="M 155.581,129.511 C 155.581,125.49 152.368,122.227 148.423,122.227 C 144.462,122.227 141.258,125.49 141.258,129.511 C 141.258,133.534 144.462,136.796 148.423,136.796 C 152.368,136.796 155.581,133.534 155.581,129.511"
                   style="fill:url(#linearGradient2592);fill-rule:evenodd;stroke:none"
                   id="path2598" /></g></g></g></g><g
           id="g2600"><g
             id="g2602"><g
               id="g2608"><g
                 id="g2610"><path
                   d="M 172.893,120.9 C 172.893,118.701 171.095,116.92 168.885,116.92 C 166.665,116.92 164.873,118.701 164.873,120.9 C 164.873,123.094 166.665,124.874 168.885,124.874 C 171.095,124.874 172.893,123.094 172.893,120.9"
                   style="fill:url(#linearGradient2612);fill-rule:evenodd;stroke:none"
                   id="path2618" /></g></g></g></g></g></g><g
       id="g2620"><g
         id="g2622"
         clip-path="url(#clipPath2624)"><path
           d="M 116.609,198.25 L 116.047,199.203 C 116.047,199.203 116.5,199.109 117.422,198.859 L 116.609,198.25 z"
           style="fill:#c3cccd;fill-opacity:1;fill-rule:evenodd;stroke:none"
           id="path2628" /></g></g><g
       id="g2630"><g
         id="g2632"
         clip-path="url(#clipPath2634)"><path
           d="M 46.818,154.2 L 46.203,155.109 C 46.203,155.109 45.959,154.216 45.922,153.719 C 45.922,153.719 46.168,153.78 46.818,154.2"
           style="fill:#c3cccd;fill-opacity:1;fill-rule:evenodd;stroke:none"
           id="path2638" /></g></g></g></svg>